<?xml version="1.0" encoding="utf-8"?>
<svg version="1.0" width="300.000000pt" height="300.000000pt" viewBox="0 0 300.000000 300.000000" preserveAspectRatio="xMidYMid meet" xmlns="http://www.w3.org/2000/svg">
  <g transform="translate(0.000000,300.000000) scale(0.100000,-0.100000)" fill="#000000" stroke="none">
    <path d="M 1319 2836 C 1294 2830 1248 2809 1216 2791 C 1161 2760 1155 2759 1109 2769 C 954 2803 800 2757 688 2644 C 597 2552 537 2254 496 2209 C 394 2095 412 1909 539 1782 C 571 1750 590 1722 590 1708 C 590 1681 640 1620 640 1620 C 640 1620 657 1587 665 1580 C 678 1569 675 1565 642 1550 C 589 1526 576 1491 583 1389 C 590 1282 629 1200 705 1133 L 759 1085 L 769 928 C 788 667 798 631 887 513 C 1002 360 1168 209 1306 133 C 1306 133 1370.421 101.21 1396.22 96.326 C 1436.574 88.687 1516.999 81.838 1597.811 96.326 C 1627.611 101.669 1705 138 1705 138 C 1812 196 1945 304 2031 404 C 2104 487 2125 521 2171 625 C 2203 700 2208 724 2225 916 L 2238 1071 L 2290 1126 C 2318 1155 2353 1206 2368 1237 C 2390 1287 2394 1309 2394 1397 C 2395 1494 2389.253 1499.418 2364.253 1524.418 C 2349.253 1538.418 2330.209 1550.627 2315.209 1550.627 C 2281.209 1552.627 2283 1563 2323 1600 C 2364 1637 2383 1694 2378 1770 C 2375 1826 2376 1829 2418 1874 C 2482 1943 2504 1999 2505 2090 C 2505 2151 2500 2175 2480 2214 C 2448 2277 2398 2317 2332 2332 C 2289 2343 2280 2349 2275 2372 C 2267 2405 2219 2474 2171 2519 C 2126 2560 2051 2599 1997 2608 C 1961 2614 1954 2620 1946 2648 C 1941 2666 1920 2700 1900 2722 C 1866 2760 1859 2764 1803 2768 C 1767 2770 1734 2767 1720 2760 C 1701 2750 1693 2751 1671 2768 C 1573 2840 1434 2867 1319 2836 Z M 1753 2208 C 1809 2179 1824 2176 1905 2176 C 1982 2175 2004 2179 2060 2203 C 2158 2246 2157 2246 2180 2209 C 2199 2179 2201 2165 2197 2076 C 2193 2006 2196 1966 2206 1938 C 2217 1907 2220 1833 2220 1617 C 2220 1617 2224.078 1435.289 2213.671 1342.538 C 2206.962 1282.75 2180 1161 2180 1161 C 2125 920 2106 853 2075 798 C 2040 736 1963 667 1903 646 C 1807 612 1793 602 1748 538 C 1707 479 1702 475 1661 472 C 1612 468 1590 482 1590 517 C 1590 531 1577 555 1560 572 C 1534 597 1524 601 1497 596 C 1461 589 1420 549 1420 520 C 1420 479 1409 470 1361 470 C 1302 470 1283 484 1231 563 C 1190 626 1189 627 1114 649 C 970 691 918 773 819 1117 C 766 1302 764 1320 756 1585 L 752.575 1740.905 L 797 1770 C 859 1803 960 1897 977 1937 C 985 1957 990 2008 990 2069 C 990 2165 991 2170 1013 2174 C 1025 2177 1048 2182 1064 2185 C 1081 2189 1112 2184 1140 2174 C 1194 2155 1232 2160 1258 2191 C 1291 2231 1304 2232 1375 2195 C 1478 2141 1513 2145 1655 2223 C 1672 2232 1686 2240 1688 2240 C 1689 2240 1719 2226 1753 2208 Z M 729.911 1346.456 C 744.911 1274.456 754.832 1198.377 758.832 1186.377 C 765.645 1161.964 757.991 1139.426 741.064 1148.843 C 728.177 1156.012 696.514 1184.289 677.927 1212.818 C 638.927 1272.818 623.457 1320.306 617.218 1391.145 C 610.383 1468.747 622.921 1492.637 631.143 1498.996 C 640.547 1506.269 685.353 1533.202 708.476 1509.746 C 731.599 1486.29 714.911 1419.456 729.911 1346.456 Z M 2354.57 1472.48 C 2362.414 1452.345 2363.764 1394.852 2356.438 1343.367 C 2350.527 1301.824 2337.287 1263.525 2328.493 1244.178 C 2305.493 1193.178 2224.102 1111.191 2215.102 1119.191 C 2212.102 1122.191 2241.522 1245.181 2252.551 1328.987 C 2268.343 1448.987 2258.816 1513.172 2270.654 1518.543 C 2279.444 1522.531 2345.24 1513.348 2354.57 1472.48 Z"/>
    <path d="M977 1784 c-50 -16 -107 -65 -141 -125 l-19 -33 36 23 c82 50 100 56 182 56 63 -1 101 -8 176 -33 111 -37 115 -37 123 -16 10 25 -9 48 -61 76 -93 51 -226 74 -296 52z"/>
    <path d="M1750 1761 c-58 -16 -113 -32 -123 -36 -19 -8 -32 -47 -23 -70 8 -22 36 -19 158 16 148 42 229 39 306 -10 29 -18 56 -31 59 -27 11 11 -51 89 -95 120 -62 44 -142 46 -282 7z"/>
    <path d="M 982 1629 C 937 1625 875 1614 845 1605 L 790 1589 L 790 1530 C 790 1477 792 1470 810 1470 C 835 1470 856 1438 871 1375 C 894 1280 928 1232 1000 1194 C 1055 1165 1219 1167 1281 1198 C 1341 1227 1383 1287 1416 1389 C 1430 1434 1449 1477 1457 1485 C 1492 1520 1522 1494 1549 1405 C 1587 1282 1638 1213 1709 1188 C 1729 1181 1788 1172.825 1840 1172.825 C 1917 1173.825 1943 1180 1975 1197 C 2043 1233 2079 1284 2101 1376 C 2116 1439 2135 1470 2161 1470 C 2179 1470 2181 1475 2178 1533 L 2175 1595 L 2095 1613 C 2040 1625 1967.015 1637.114 1860 1636.263 C 1711.184 1635.079 1703.484 1632.516 1615 1602 C 1507.657 1564.981 1460 1562 1378 1595 C 1268 1638 1165 1647 982 1629 Z M 1333.313 1555.737 C 1361.037 1538.525 1379.65 1513.175 1373.65 1438.175 C 1360.65 1282.175 1246.388 1199.737 1088.613 1221.212 C 1053.581 1225.98 1011.175 1242.824 1001.175 1248.824 C 924.175 1289.824 870 1480 921 1531 C 961 1571 998 1586.613 1139 1587.613 C 1256 1587.613 1297.59 1577.915 1333.313 1555.737 Z M 2017.911 1569.657 C 2052.675 1558.474 2079.114 1496.904 2064 1411 C 2051.97 1342.624 2025.395 1283.442 1970.387 1247.3 C 1907.552 1206.016 1836.263 1209.212 1776.263 1219.212 C 1667.263 1236.212 1594.938 1320.701 1592 1442 C 1590.474 1505 1602.536 1519.85 1620.634 1542.801 C 1647.244 1576.548 1690.879 1592.01 1832.737 1589.876 C 1950.579 1588.103 1975.639 1583.255 2017.911 1569.657 Z M 870.293 1537.72 C 870.293 1526.712 861.37 1517.789 850.362 1517.789 C 839.354 1517.789 830.431 1526.712 830.431 1537.72 C 830.431 1548.728 839.354 1557.651 850.362 1557.651 C 861.37 1557.651 870.293 1548.728 870.293 1537.72 Z M 2135.573 1541.012 C 2135.573 1530.004 2126.65 1521.081 2115.642 1521.081 C 2104.635 1521.081 2095.711 1530.004 2095.711 1541.012 C 2095.711 1552.02 2104.635 1560.943 2115.642 1560.943 C 2126.65 1560.943 2135.573 1552.02 2135.573 1541.012 Z"/>
    <path d="M 1302 1025 C 1286 1004 1277.939 983.946 1280 944 C 1281.969 905.83 1286.263 894.88 1305 884 C 1325.002 872.386 1351.349 886.552 1373.856 892.571 C 1392.712 897.613 1343.214 866.375 1333 864 C 1295 855 1272 842 1226 807 C 1187 776 1144 698 1155 680 C 1163 667 1222 668 1277 680 C 1300 685 1351 692 1392 695 C 1442 699 1472.489 709.324 1493 721 C 1502.286 726.286 1515.715 733.857 1525 724.286 C 1541.015 707.778 1589 692 1722 686 C 1806 682 1861 684 1865 690 C 1876 708 1843 765 1798 807 C 1755 846 1701.662 871.987 1656.662 871.987 C 1638.906 874.578 1608.9 882.574 1627.672 891.051 C 1652.082 902.074 1667.538 893.844 1681.938 902.954 C 1702.339 915.86 1720 937 1720 959 C 1720 976 1716 992 1710 995 C 1704 998 1700 991 1700 977 C 1700 945 1671.093 926 1640.062 931.031 C 1610.91 932 1606.424 928.442 1577 903 C 1529.874 862.252 1503.489 856.319 1432 910 C 1399.622 934.313 1386.933 938.689 1359 926 C 1342 915 1327.093 913.984 1317.093 922.984 C 1301.093 935.984 1306 1002 1321 1017 C 1327 1023 1330 1034 1328 1041 C 1326 1048 1316 1043 1302 1025 Z" style=""/>
    <path d="M 1656 870.5 C 1655.318 870.5 1633.84 870.803 1602.139 871.033 C 1613.96 880.003 1614.384 883.736 1627.901 890.606 C 1639.714 896.701 1649.575 897.372 1658.355 897.678 C 1667.133 897.984 1674.869 897.938 1682.205 902.531 C 1702.665 915.488 1720.5 936.84 1720.5 959 C 1720.5 967.53 1719.492 975.846 1717.733 982.38 C 1715.969 988.933 1713.354 993.882 1710.224 995.447 C 1708.642 996.238 1707.052 996.381 1705.732 995.891 C 1704.419 995.402 1703.224 994.244 1702.314 992.619 C 1700.525 989.425 1699.5 984.047 1699.5 977 C 1699.5 961.123 1692.395 948.593 1681.372 940.533 C 1670.346 932.469 1655.561 929.006 1640.142 931.525 L 1640.11 931.53 L 1640.079 931.531 C 1610.763 932.446 1606.105 928.827 1576.673 903.378 C 1553.139 883.026 1534.927 871.457 1513.639 871.589 C 1492.324 871.722 1468.004 883.584 1432.3 910.4 C 1399.854 934.749 1386.911 939.153 1358.793 926.455 L 1358.76 926.44 L 1358.728 926.42 C 1350.276 920.944 1342.417 917.99 1335.386 917.491 C 1328.377 916.993 1322.317 918.924 1317.408 923.372 C 1309.498 929.713 1306.822 949.259 1307.921 969.215 C 1309.02 989.172 1313.945 1009.238 1321.354 1016.646 C 1327.441 1022.734 1330.516 1034.013 1328.481 1041.137 C 1327.947 1043.004 1326.725 1044.22 1325.143 1044.478 C 1323.601 1044.729 1321.552 1044.151 1319.248 1042.807 C 1314.698 1040.152 1308.627 1034.33 1301.602 1025.303 C 1285.569 1004.245 1277.457 984.026 1279.501 943.974 C 1281.487 905.726 1285.905 894.573 1304.749 883.568 C 1324.995 871.95 1351.532 886.09 1373.985 892.088 C 1383.287 894.608 1389.973 892.875 1397.528 888.559 C 1405.102 884.231 1412.814 877.808 1424.447 870.279 C 1380.915 869.336 1346.328 867.609 1332.885 864.487 C 1294.819 855.461 1271.717 842.41 1225.689 807.391 C 1206.145 791.846 1185.58 764.523 1171.313 738.868 C 1157.041 713.203 1149.05 688.947 1154.574 679.738 C 1158.743 673.123 1175.707 670 1198.378 670.125 C 1221.03 670.25 1249.582 673.507 1277.106 679.511 C 1300.087 684.508 1351.056 691.503 1392.04 694.502 C 1442.1 698.514 1472.693 708.87 1493.247 720.565 C 1497.89 723.208 1503.505 726.387 1509.117 727.728 C 1514.718 729.067 1520.156 728.648 1524.641 723.938 C 1540.757 707.366 1588.909 691.513 1721.976 685.501 C 1763.985 683.5 1798.754 683 1823.515 683.75 C 1848.291 684.501 1863.252 686.63 1865.427 689.739 C 1870.953 698.94 1865.463 717.948 1852.934 739.749 C 1840.415 761.531 1820.862 786.342 1798.336 807.37 C 1755.27 846.414 1701.102 870.5 1656 870.5 Z M 1797.661 806.632 C 1820.135 785.661 1839.585 760.969 1852.067 739.251 C 1864.537 717.552 1870.046 699.062 1864.574 690.262 C 1862.706 687.38 1848.209 685.499 1823.485 684.75 C 1798.746 684 1764.015 684.5 1722.024 686.499 C 1589.091 692.487 1541.273 708.19 1525.359 724.634 C 1520.559 729.495 1514.64 730.076 1508.884 728.701 C 1503.138 727.327 1497.396 724.078 1492.753 721.435 C 1472.285 709.778 1441.901 699.486 1391.962 695.499 C 1350.946 692.497 1299.913 685.492 1276.894 680.489 C 1249.419 674.493 1220.97 671.25 1198.372 671.125 C 1175.793 671 1159.257 673.877 1155.426 680.262 C 1149.95 689.053 1157.959 712.797 1172.187 738.382 C 1186.42 763.977 1206.852 791.15 1226.307 806.605 C 1272.276 841.584 1295.18 854.539 1333.114 863.513 C 1346.469 866.623 1382.587 868.373 1426.105 869.315 L 1427.753 869.35 L 1426.363 870.236 C 1414.028 878.097 1405.674 885.056 1398.024 889.427 C 1390.353 893.81 1383.281 895.576 1373.727 893.054 C 1351.166 887.014 1325.009 872.822 1305.251 884.432 C 1286.621 895.187 1282.451 905.934 1280.499 944.026 C 1278.421 983.866 1286.43 1003.754 1302.396 1024.695 C 1309.371 1033.667 1315.302 1039.348 1319.752 1041.943 C 1321.948 1043.224 1323.649 1043.708 1324.982 1043.491 C 1326.275 1043.28 1327.053 1042.496 1327.519 1040.863 C 1329.484 1033.987 1326.559 1023.266 1320.646 1017.354 C 1313.055 1009.762 1308.027 989.32 1306.922 969.27 C 1305.818 949.217 1308.677 929.264 1316.767 922.605 C 1321.857 918.058 1328.262 915.983 1335.457 916.493 C 1342.63 917.002 1350.704 920.049 1359.241 925.56 C 1386.965 938.222 1399.39 933.877 1431.7 909.6 C 1467.485 882.735 1492.102 870.723 1513.633 870.589 C 1535.191 870.455 1553.735 882.226 1577.327 902.622 C 1606.743 928.057 1611.054 931.552 1640.013 930.532 C 1655.615 928.03 1670.778 931.546 1681.963 939.725 C 1693.151 947.907 1700.5 960.877 1700.5 977 C 1700.5 983.953 1701.475 989.075 1703.186 992.131 C 1704.026 993.631 1704.956 994.535 1706.081 994.953 C 1707.198 995.369 1708.358 995.262 1709.776 994.553 C 1712.646 993.118 1715.032 988.567 1716.767 982.12 C 1718.508 975.654 1719.5 967.47 1719.5 959 C 1719.5 937.16 1702.014 916.232 1681.671 903.377 C 1674.607 898.86 1667.121 898.984 1658.32 898.677 C 1649.523 898.371 1639.451 897.645 1627.443 891.496 C 1613.683 884.345 1612.03 879.678 1600.38 870.943 L 1599.195 870.054 L 1600.678 870.044 C 1633.17 869.812 1655.311 869.5 1656 869.5 C 1700.899 869.5 1754.728 845.587 1797.661 806.632 Z" style="fill: none;"/>
  </g>
</svg>